<?xml version="1.0" encoding="UTF-8" standalone="no"?>
<!DOCTYPE svg PUBLIC "-//W3C//DTD SVG 1.1//EN"
 "http://www.w3.org/Graphics/SVG/1.1/DTD/svg11.dtd">
<!-- Generated by graphviz version 2.43.0 (0)
 -->
<!-- Title: G Pages: 1 -->
<svg width="422pt" height="626pt"
 viewBox="0.00 0.00 422.08 626.26" xmlns="http://www.w3.org/2000/svg" xmlns:xlink="http://www.w3.org/1999/xlink">
<g id="graph0" class="graph" transform="scale(1 1) rotate(0) translate(4 622.26)">
<title>G</title><style>.edge>path:hover{stroke-width:8}</style>
<polygon fill="white" stroke="transparent" points="-4,4 -4,-622.26 418.08,-622.26 418.08,4 -4,4"/>
<!-- csdetector -->
<g id="node1" class="node">
<title>csdetector</title><style>.edge>path:hover{stroke-width:8}</style>
<ellipse fill="#e72222" stroke="black" cx="91.58" cy="-280.64" rx="40.06" ry="18"/>
<text text-anchor="middle" x="91.58" y="-278.14" font-family="Helvetica,sans-Serif" font-size="10.00" fill="#ffffff">csdetector</text>
</g>
<!-- main_py -->
<g id="node9" class="node">
<title>main_py</title><style>.edge>path:hover{stroke-width:8}</style>
<ellipse fill="#439d9d" stroke="black" cx="223.58" cy="-168.43" rx="32.93" ry="18"/>
<text text-anchor="middle" x="223.58" y="-165.93" font-family="Helvetica,sans-Serif" font-size="10.00" fill="#000000">main.py</text>
</g>
<!-- csdetector&#45;&gt;main_py -->
<g id="edge1" class="edge">
<title>csdetector&#45;&gt;main_py</title><style>.edge>path:hover{stroke-width:8}</style>
<path fill="none" stroke="black" d="M120.23,-267.82C159.07,-251.75 223.62,-224.82 223.58,-223.43"/>
<path fill="none" stroke="black" d="M223.58,-222.43C223.36,-214.11 223.3,-205.06 223.31,-196.83"/>
<polygon fill="#e72222" stroke="black" points="226.81,-196.63 223.36,-186.62 219.81,-196.6 226.81,-196.63"/>
</g>
<!-- csdetector_communitysmells -->
<g id="node2" class="node">
<title>csdetector_communitysmells</title><style>.edge>path:hover{stroke-width:8}</style>
<ellipse fill="#8f3d3d" stroke="black" cx="223.58" cy="-280.64" rx="73.58" ry="21.43"/>
<text text-anchor="middle" x="223.58" y="-283.64" font-family="Helvetica,sans-Serif" font-size="10.00" fill="#ffffff">csdetector.</text>
<text text-anchor="middle" x="223.58" y="-272.64" font-family="Helvetica,sans-Serif" font-size="10.00" fill="#ffffff">communitysmells</text>
</g>
<!-- csdetector_communitysmells&#45;&gt;main_py -->
<g id="edge2" class="edge">
<title>csdetector_communitysmells&#45;&gt;main_py</title><style>.edge>path:hover{stroke-width:8}</style>
<path fill="none" stroke="black" d="M223.83,-259.34C223.9,-248.65 223.89,-235.33 223.58,-223.43"/>
</g>
<!-- csdetector_config -->
<g id="node3" class="node">
<title>csdetector_config</title><style>.edge>path:hover{stroke-width:8}</style>
<ellipse fill="#b34c4c" stroke="black" cx="364.58" cy="-280.64" rx="49.49" ry="21.43"/>
<text text-anchor="middle" x="364.58" y="-283.64" font-family="Helvetica,sans-Serif" font-size="10.00" fill="#ffffff">csdetector.</text>
<text text-anchor="middle" x="364.58" y="-272.64" font-family="Helvetica,sans-Serif" font-size="10.00" fill="#ffffff">config</text>
</g>
<!-- csdetector_config&#45;&gt;main_py -->
<g id="edge3" class="edge">
<title>csdetector_config&#45;&gt;main_py</title><style>.edge>path:hover{stroke-width:8}</style>
<path fill="none" stroke="black" d="M327.22,-266.63C285.49,-251.84 223.73,-229.01 223.58,-223.43"/>
</g>
<!-- csdetector_github -->
<g id="node4" class="node">
<title>csdetector_github</title><style>.edge>path:hover{stroke-width:8}</style>
<ellipse fill="#c24747" stroke="black" cx="146.58" cy="-359.07" rx="49.49" ry="21.43"/>
<text text-anchor="middle" x="146.58" y="-362.07" font-family="Helvetica,sans-Serif" font-size="10.00" fill="#ffffff">csdetector.</text>
<text text-anchor="middle" x="146.58" y="-351.07" font-family="Helvetica,sans-Serif" font-size="10.00" fill="#ffffff">github</text>
</g>
<!-- csdetector_github&#45;&gt;csdetector_communitysmells -->
<g id="edge4" class="edge">
<title>csdetector_github&#45;&gt;csdetector_communitysmells</title><style>.edge>path:hover{stroke-width:8}</style>
<path fill="none" stroke="black" d="M165.61,-339.17C175,-329.85 186.49,-318.45 196.75,-308.27"/>
<polygon fill="#c24747" stroke="black" points="199.33,-310.64 203.96,-301.11 194.4,-305.67 199.33,-310.64"/>
</g>
<!-- csdetector_github_GitHubRequestController -->
<g id="node5" class="node">
<title>csdetector_github_GitHubRequestController</title><style>.edge>path:hover{stroke-width:8}</style>
<ellipse fill="#ac4949" stroke="black" cx="97.58" cy="-445.27" rx="97.66" ry="28.98"/>
<text text-anchor="middle" x="97.58" y="-453.77" font-family="Helvetica,sans-Serif" font-size="10.00" fill="#ffffff">csdetector.</text>
<text text-anchor="middle" x="97.58" y="-442.77" font-family="Helvetica,sans-Serif" font-size="10.00" fill="#ffffff">github.</text>
<text text-anchor="middle" x="97.58" y="-431.77" font-family="Helvetica,sans-Serif" font-size="10.00" fill="#ffffff">GitHubRequestController</text>
</g>
<!-- csdetector_github_GitHubRequestController&#45;&gt;csdetector_communitysmells -->
<g id="edge5" class="edge">
<title>csdetector_github_GitHubRequestController&#45;&gt;csdetector_communitysmells</title><style>.edge>path:hover{stroke-width:8}</style>
<path fill="none" stroke="black" d="M163.88,-423.78C191.58,-410.81 218.53,-390.57 223.58,-360.07"/>
<path fill="none" stroke="black" d="M223.58,-358.07C226.07,-343.04 226.32,-326.13 225.85,-312.05"/>
<polygon fill="#ac4949" stroke="black" points="229.34,-311.72 225.37,-301.9 222.35,-312.05 229.34,-311.72"/>
</g>
<!-- csdetector_utils -->
<g id="node6" class="node">
<title>csdetector_utils</title><style>.edge>path:hover{stroke-width:8}</style>
<ellipse fill="#ac4949" stroke="black" cx="300.58" cy="-359.07" rx="49.49" ry="21.43"/>
<text text-anchor="middle" x="300.58" y="-362.07" font-family="Helvetica,sans-Serif" font-size="10.00" fill="#ffffff">csdetector.</text>
<text text-anchor="middle" x="300.58" y="-351.07" font-family="Helvetica,sans-Serif" font-size="10.00" fill="#ffffff">utils</text>
</g>
<!-- csdetector_utils&#45;&gt;csdetector_communitysmells -->
<g id="edge6" class="edge">
<title>csdetector_utils&#45;&gt;csdetector_communitysmells</title><style>.edge>path:hover{stroke-width:8}</style>
<path fill="none" stroke="black" d="M281.55,-339.17C272.16,-329.85 260.67,-318.45 250.41,-308.27"/>
<polygon fill="#ac4949" stroke="black" points="252.76,-305.67 243.2,-301.11 247.83,-310.64 252.76,-305.67"/>
</g>
<!-- git -->
<g id="node7" class="node">
<title>git</title><style>.edge>path:hover{stroke-width:8}</style>
<ellipse fill="#7ac431" stroke="black" cx="278.58" cy="-528.26" rx="27" ry="18"/>
<text text-anchor="middle" x="278.58" y="-525.76" font-family="Helvetica,sans-Serif" font-size="10.00" fill="#000000">git</text>
</g>
<!-- git&#45;&gt;csdetector_communitysmells -->
<g id="edge7" class="edge">
<title>git&#45;&gt;csdetector_communitysmells</title><style>.edge>path:hover{stroke-width:8}</style>
<path fill="none" stroke="black" d="M273.91,-510.36C269.68,-494.09 263.79,-468.72 261.58,-446.27"/>
<path fill="none" stroke="black" d="M261.58,-444.27C257.56,-403.41 216.88,-400.57 223.58,-360.07"/>
</g>
<!-- git&#45;&gt;csdetector_utils -->
<g id="edge8" class="edge">
<title>git&#45;&gt;csdetector_utils</title><style>.edge>path:hover{stroke-width:8}</style>
<path fill="none" stroke="black" d="M261.58,-444.27C259.61,-424.3 268.79,-403.83 278.74,-388.07"/>
<polygon fill="#7ac431" stroke="black" points="281.91,-389.63 284.6,-379.38 276.11,-385.71 281.91,-389.63"/>
</g>
<!-- git_repo -->
<g id="node8" class="node">
<title>git_repo</title><style>.edge>path:hover{stroke-width:8}</style>
<ellipse fill="#85c247" stroke="black" cx="250.58" cy="-600.26" rx="31.58" ry="18"/>
<text text-anchor="middle" x="250.58" y="-597.76" font-family="Helvetica,sans-Serif" font-size="10.00" fill="#000000">git.repo</text>
</g>
<!-- git_repo&#45;&gt;csdetector_communitysmells -->
<g id="edge9" class="edge">
<title>git_repo&#45;&gt;csdetector_communitysmells</title><style>.edge>path:hover{stroke-width:8}</style>
<path fill="none" stroke="black" d="M245.48,-582.36C234.33,-543.13 209.87,-442.94 223.58,-360.07"/>
</g>
<!-- git_repo&#45;&gt;git -->
<g id="edge10" class="edge">
<title>git_repo&#45;&gt;git</title><style>.edge>path:hover{stroke-width:8}</style>
<path fill="none" stroke="black" d="M257.36,-582.32C260.59,-574.23 264.53,-564.38 268.14,-555.37"/>
<polygon fill="#85c247" stroke="black" points="271.4,-556.64 271.87,-546.05 264.9,-554.04 271.4,-556.64"/>
</g>
<!-- pkg_resources -->
<g id="node10" class="node">
<title>pkg_resources</title><style>.edge>path:hover{stroke-width:8}</style>
<ellipse fill="#753ab0" stroke="black" cx="269.58" cy="-18" rx="51.43" ry="18"/>
<text text-anchor="middle" x="269.58" y="-15.5" font-family="Helvetica,sans-Serif" font-size="10.00" fill="#ffffff">pkg_resources</text>
</g>
<!-- main_py&#45;&gt;pkg_resources -->
<g id="edge11" class="edge">
<title>main_py&#45;&gt;pkg_resources</title><style>.edge>path:hover{stroke-width:8}</style>
<path fill="none" stroke="black" d="M226.97,-140.19C229.87,-120.81 234.83,-94.35 242.58,-72 245.78,-62.78 250.29,-53.15 254.71,-44.67"/>
<polygon fill="#439d9d" stroke="black" points="223.5,-139.77 225.57,-150.16 230.43,-140.75 223.5,-139.77"/>
<polygon fill="#439d9d" stroke="black" points="257.91,-46.12 259.59,-35.66 251.75,-42.79 257.91,-46.12"/>
</g>
<!-- pkg_resources_extern -->
<g id="node11" class="node">
<title>pkg_resources_extern</title><style>.edge>path:hover{stroke-width:8}</style>
<ellipse fill="#8553b6" stroke="black" cx="315.58" cy="-93.21" rx="63.78" ry="21.43"/>
<text text-anchor="middle" x="315.58" y="-96.21" font-family="Helvetica,sans-Serif" font-size="10.00" fill="#ffffff">pkg_resources.</text>
<text text-anchor="middle" x="315.58" y="-85.21" font-family="Helvetica,sans-Serif" font-size="10.00" fill="#ffffff">extern</text>
</g>
<!-- pkg_resources_extern&#45;&gt;pkg_resources -->
<g id="edge13" class="edge">
<title>pkg_resources_extern&#45;&gt;pkg_resources</title><style>.edge>path:hover{stroke-width:8}</style>
<path fill="none" stroke="black" d="M303.01,-72.21C297.66,-63.7 291.36,-53.67 285.68,-44.63"/>
<polygon fill="#8553b6" stroke="black" points="288.55,-42.61 280.26,-36 282.62,-46.33 288.55,-42.61"/>
</g>
</g>
</svg>
